<?xml version="1.0" encoding="UTF-8" standalone="no"?>
<svg width="93px" height="42px" viewBox="0 0 93 42" version="1.1" xmlns="http://www.w3.org/2000/svg" xmlns:xlink="http://www.w3.org/1999/xlink">
    <defs></defs>
    <g id="Page-1" stroke="none" stroke-width="1" fill="none" fill-rule="evenodd">
        <g id="logo-02" fill="#FFFFFF">
            <g id="Group">
                <path d="M73.19606,32.9088608 L73.19606,32.4303797 C70.9103189,32.2886076 70.6834897,30.2506329 70.6834897,27.9468354 L70.6834897,27.8759494 C70.6834897,27.8759494 70.7009381,23.2683544 70.6834897,21.0886076 L70.6834897,0.159493671 L63.9658537,0.159493671 L63.9658537,0.620253165 C66.1643527,0.637974684 66.8448405,1.86075949 66.8273921,2.94177215 L66.8273921,11.6075949 C65.3966229,10.5797468 63.4075047,10.1012658 61.4358349,10.0835443 C55.4161351,10.0126582 50.8795497,14.3721519 50.7748593,21.1417722 C50.635272,29.0810127 55.3986867,32.8911392 61.1217636,32.8911392 C64.9604128,32.8911392 66.8448405,30.6050633 66.8448405,30.6050633 L66.8448405,30.5873418 L66.8448405,32.9088608 L73.19606,32.9088608 L73.19606,32.9088608 Z M66.8273921,28.7974684 C66.8273921,28.7974684 64.6637899,31.7392405 61.5405253,31.7392405 C60.8251407,31.7392405 60.2144465,31.6683544 59.673546,31.5265823 L59.6560976,31.5265823 C57.091182,30.9772152 55.154409,28.2126582 55.1195122,21.7797468 C55.1195122,15.2050633 57.1086304,12.121519 59.6560976,11.5898734 C60.2667917,11.4658228 60.8251407,11.4126582 61.3660413,11.4303797 C61.4707317,11.4303797 61.5928705,11.4126582 61.7150094,11.4303797 C63.7041276,11.4658228 65.4838649,11.8202532 66.8448405,12.9721519 L66.8448405,14.0708861 L66.8448405,14.1594937 L66.8448405,22.0632911 C66.8273921,25.5189873 66.8273921,28.7974684 66.8273921,28.7974684 L66.8273921,28.7974684 Z" id="Shape"></path>
                <path d="M80.6465291,11.3240506 L73.9812383,11.3240506 L73.9812383,11.8025316 C76.1797373,11.8202532 76.7380863,13.043038 76.7380863,14.1240506 L76.7380863,36.4531646 C75.8133208,39.0936709 73.4926829,38.8810127 72.8819887,38.3848101 C72.1142589,37.7468354 70.6660413,37.764557 70.0553471,38.5088608 C68.7467167,40.1037975 69.9855535,42.1417722 71.8525328,41.8405063 C75.4120075,41.2556962 76.5287054,38.4734177 80.6465291,32.8379747 L80.6465291,11.3240506 L80.6465291,11.3240506 Z" id="Shape"></path>
                <path d="M78.1688555,2.64050633 C79.5123827,2.64050633 80.6116323,3.73924051 80.6290807,5.12151899 C80.6290807,6.50379747 79.5472795,7.62025316 78.2037523,7.62025316 C76.8427767,7.62025316 75.7435272,6.52151899 75.7435272,5.13924051 C75.7435272,3.75696203 76.8253283,2.64050633 78.1688555,2.64050633" id="Shape"></path>
                <path d="M87.9050657,2.64050633 C89.2660413,2.64050633 90.3478424,3.73924051 90.3652908,5.10379747 C90.3652908,6.48607595 89.2834897,7.60253165 87.9225141,7.60253165 C86.5789869,7.60253165 85.4622889,6.50379747 85.4622889,5.13924051 C85.4622889,3.75696203 86.5440901,2.64050633 87.9050657,2.64050633" id="Shape"></path>
                <path d="M90.243152,11.2708861 L83.7523452,11.2708861 L83.7523452,11.7493671 C85.9508443,11.7848101 86.4917448,12.9898734 86.4917448,14.0708861 L86.4917448,32.9265823 L92.8604128,32.9265823 L92.8604128,32.4481013 C90.5746717,32.3063291 90.2606004,30.3037975 90.2606004,27.9822785 L90.2606004,11.2708861 L90.243152,11.2708861 Z" id="Shape"></path>
                <path d="M48.8380863,21.0531646 C48.8031895,14.4962025 43.2371482,10.2075949 37.1302064,10.243038 C30.9534709,10.278481 25.3874296,14.6202532 25.4223265,21.1594937 L25.4223265,21.9037975 C25.4572233,28.5848101 31.127955,32.9088608 37.1825516,32.8911392 C43.4988743,32.8556962 48.8729831,28.3544304 48.8380863,21.7974684 L48.8380863,21.0531646 L48.8380863,21.0531646 Z M35.6819887,32.1468354 C33.0472795,31.5797468 29.9938086,28.5139241 29.9414634,21.6911392 C29.9414634,14.7265823 33.0472795,11.5721519 35.6819887,11.0050633 C40.2360225,10.0481013 44.388743,13.0607595 44.3363977,21.6911392 C44.3363977,30.1443038 40.1836773,33.1037975 35.6819887,32.1468354 L35.6819887,32.1468354 Z" id="Shape"></path>
                <path d="M23.5553471,21.0531646 C23.5378987,14.4962025 17.954409,10.2075949 11.8474672,10.243038 C5.67073171,10.278481 0.104690432,14.6202532 0.139587242,21.1594937 L0.139587242,21.9037975 C0.174484053,28.5848101 5.84521576,32.9088608 11.8998124,32.8911392 C18.2161351,32.8556962 23.5902439,28.3544304 23.5553471,21.7974684 L23.5553471,21.0531646 L23.5553471,21.0531646 Z M10.3992495,32.1468354 C7.76454034,31.5797468 4.71106942,28.5139241 4.6587242,21.6911392 C4.6587242,14.7265823 7.76454034,11.5721519 10.3992495,11.0050633 C14.9532833,10.0481013 19.1060038,13.0607595 19.0536585,21.6911392 C19.0536585,30.1443038 14.9183865,33.1037975 10.3992495,32.1468354 L10.3992495,32.1468354 Z" id="Shape"></path>
            </g>
        </g>
    </g>
</svg>